<svg width="48" height="48" viewBox="0 0 48 48" fill="none" xmlns="http://www.w3.org/2000/svg">
<path fill-rule="evenodd" clip-rule="evenodd" d="M23.665 40.33C32.8688 40.33 40.33 32.8688 40.33 23.665C40.33 14.4612 32.8688 7 23.665 7C14.4612 7 7 14.4612 7 23.665C7 32.8688 14.4612 40.33 23.665 40.33ZM33.0496 20.9655C32.561 20.9282 32.09 20.9904 31.6564 21.1326C30.9723 18.3106 28.4045 16.2137 25.3409 16.2137C24.6265 16.2137 24.0934 16.3364 23.6953 16.5585C23.2653 16.8002 23.0059 17.2622 23.0059 17.7544V27.1336C23.0059 27.6934 23.459 28.1465 24.0188 28.1465H32.7706C34.8107 28.1465 36.4544 26.4477 36.362 24.3863C36.2821 22.5808 34.848 21.1024 33.0479 20.9655H33.0496ZM22.4079 17.8917C22.4079 17.57 22.1449 17.3088 21.8251 17.3088C21.5034 17.3088 21.2422 17.5718 21.2422 17.8917V27.5676C21.2422 27.8893 21.5052 28.1505 21.8251 28.1505C22.1467 28.1505 22.4079 27.8875 22.4079 27.5676V17.8917ZM20.0653 19.1833C20.3852 19.1833 20.6482 19.4446 20.6482 19.7662V27.5656C20.6482 27.8855 20.3869 28.1485 20.0653 28.1485C19.7454 28.1485 19.4824 27.8872 19.4824 27.5656V19.7662C19.4824 19.4463 19.7436 19.1833 20.0653 19.1833ZM18.8814 19.0627C18.8814 18.7499 18.6255 18.494 18.3128 18.494C18 18.494 17.7441 18.7499 17.7441 19.0627V27.5764C17.7441 27.8892 18 28.1451 18.3128 28.1451C18.6255 28.1451 18.8814 27.8892 18.8814 27.5764V19.0627ZM16.5353 19.7253C16.8356 19.7253 17.0809 19.9706 17.0809 20.2709L17.1466 24.6015L17.0809 27.6012C17.0809 27.9015 16.8356 28.1467 16.5353 28.1467C16.235 28.1467 15.9898 27.9015 15.9898 27.6012L15.9258 24.6122L15.9898 20.2691C15.9898 19.9688 16.235 19.7236 16.5353 19.7236V19.7253ZM15.2714 22.6663C15.2714 22.3998 15.0529 22.1812 14.7863 22.1812C14.5198 22.1812 14.3012 22.3998 14.3012 22.6663L14.2461 24.9605L14.3012 27.6615C14.3012 27.9281 14.5198 28.1467 14.7863 28.1467C15.0529 28.1467 15.2714 27.9281 15.2714 27.6615L15.3301 24.9498L15.2714 22.6663ZM13.1077 21.4758C13.3583 21.4758 13.5644 21.6802 13.5644 21.9325L13.6479 24.957L13.5644 27.6936C13.5644 27.9442 13.36 28.1503 13.1077 28.1503C12.8571 28.1503 12.651 27.946 12.651 27.6936L12.5586 24.9641L12.651 21.9343C12.651 21.6837 12.8554 21.4776 13.1077 21.4776V21.4758ZM11.8551 23.0697C11.8551 22.8564 11.6792 22.6805 11.466 22.6805C11.2527 22.6805 11.0768 22.8564 11.0768 23.0697L10.9648 24.8112L11.0768 26.5527C11.0768 26.7659 11.2527 26.9418 11.466 26.9418C11.6792 26.9418 11.8551 26.7659 11.8551 26.5527L11.9618 24.8112L11.8551 23.0697Z" fill="black"/>
</svg>
